<svg viewBox="17 11 66 70" fill="none" xmlns="http://www.w3.org/2000/svg">
  <g fill="#ff6b00" stroke="none">
    <polygon points="33,39 22,46 31,57 37,51" fill-opacity="0.25" />
    <polygon points="22,46 36,78 41,77 31,57" fill-opacity="0.15" />
    <polygon points="37,51 31,57 41,77 44,77" fill-opacity="0.35" />
    <polygon points="50,15 35,35 50,45" fill-opacity="0.28" />
    <polygon points="50,15 65,35 50,45" fill-opacity="0.42" />
    <polygon points="35,35 50,45 50,78 41,78" fill-opacity="0.2" />
    <polygon points="65,35 50,45 50,78 59,78" fill-opacity="0.32" />
    <polygon points="67,39 78,46 69,57 63,51" fill-opacity="0.4" />
    <polygon points="78,46 64,78 59,77 69,57" fill-opacity="0.25" />
    <polygon points="63,51 69,57 59,77 56,77" fill-opacity="0.15" />
  </g>
  <g fill="none" stroke="#ff6b00" stroke-width="4.2" stroke-linecap="round" stroke-linejoin="round">
    <polygon points="50,15 65,35 59,78 41,78 35,35" />
    <line x1="50" y1="15" x2="50" y2="78" />
    <line x1="35" y1="35" x2="50" y2="45" />
    <line x1="65" y1="35" x2="50" y2="45" />
    <polygon points="33,39 22,46 36,78 44,77 37,51" />
    <line x1="22" y1="46" x2="41" y2="77" />
    <line x1="22" y1="46" x2="31" y2="57" />
    <line x1="37" y1="51" x2="31" y2="57" />
    <polygon points="67,39 78,46 64,78 56,77 63,51" />
    <line x1="78" y1="46" x2="59" y2="77" />
    <line x1="78" y1="46" x2="69" y2="57" />
    <line x1="63" y1="51" x2="69" y2="57" />
  </g>
</svg>